<svg width="716" height="108" viewBox="0 0 716 108" fill="none" xmlns="http://www.w3.org/2000/svg">
<path d="M83.88 39.12H89.88V41.52H88.8V43.92H87.72V45.72H85.2V46.32H86.16V46.92H82.8V48.12H88.56V49.92H85.08V50.52H85.2C85.2 50.92 85.16 51.32 85.08 51.72C85.08 52.12 85.08 52.52 85.08 52.92H84.96C84.88 53.16 84.84 53.52 84.84 54V55.32H84.24C84.16 55.48 84.12 55.68 84.12 55.92C84.12 56.16 84.12 56.36 84.12 56.52H85.32L84.96 58.92H83.88C83.8 59.32 83.72 59.72 83.64 60.12C83.64 60.52 83.56 60.92 83.4 61.32H84.72C84.72 61.4 84.68 61.48 84.6 61.56C84.6 61.64 84.6 61.76 84.6 61.92H86.4C86.4 62 86.36 62.08 86.28 62.16C86.28 62.24 86.28 62.36 86.28 62.52H84.12C84.04 62.84 83.96 63.16 83.88 63.48C83.8 63.72 83.72 64 83.64 64.32H83.28L82.56 66.12H81.24C81.16 66.44 81.04 66.76 80.88 67.08C80.72 67.32 80.56 67.6 80.4 67.92H81.48C81.32 68.32 81.12 68.72 80.88 69.12H80.16C80.08 69.44 79.92 69.76 79.68 70.08C79.52 70.32 79.36 70.6 79.2 70.92H82.92L82.08 72.12H77.64L76.32 73.92H77.64L75.96 75.72H77.28C77.2 75.8 77.08 75.88 76.92 75.96C76.84 76.04 76.76 76.16 76.68 76.32H78.12C77.88 76.48 77.64 76.68 77.4 76.92C77.24 77.16 77.04 77.36 76.8 77.52H74.52C74.28 77.68 74.04 77.88 73.8 78.12C73.56 78.36 73.28 78.56 72.96 78.72H73.8C73.56 78.88 73.28 79.08 72.96 79.32C72.72 79.56 72.44 79.76 72.12 79.92H71.88C71.16 80.32 70.44 80.72 69.72 81.12C69 81.52 68.24 81.92 67.44 82.32H67.08C66.84 82.4 66.6 82.48 66.36 82.56C66.12 82.64 65.88 82.76 65.64 82.92C65.08 83.16 64.52 83.4 63.96 83.64C63.48 83.8 62.92 83.96 62.28 84.12H62.16C59.52 84.92 56.64 85.52 53.52 85.92H53.64C52.36 86.08 51 86.2 49.56 86.28C48.2 86.36 46.84 86.4 45.48 86.4C44.04 86.4 42.64 86.36 41.28 86.28C39.92 86.2 38.56 86.08 37.2 85.92C34.16 85.6 31.24 85 28.44 84.12H28.56C28 83.96 27.44 83.8 26.88 83.64C26.32 83.4 25.76 83.16 25.2 82.92H25.08C24.84 82.76 24.6 82.64 24.36 82.56C24.12 82.48 23.88 82.4 23.64 82.32H24C23.2 81.92 22.44 81.52 21.72 81.12C21 80.72 20.28 80.32 19.56 79.92H19.8L18 78.72H17.28C16.96 78.56 16.68 78.36 16.44 78.12C16.2 77.88 15.96 77.68 15.72 77.52H18L16.56 76.32H15.12C15.04 76.16 14.96 76.04 14.88 75.96C14.8 75.88 14.68 75.8 14.52 75.72H13.32C13 75.4 12.68 75.12 12.36 74.88C12.12 74.56 11.88 74.24 11.64 73.92H10.32L8.88 72.12H13.32L12.6 70.92H8.76C8.6 70.6 8.44 70.32 8.28 70.08C8.12 69.76 7.96 69.44 7.8 69.12H8.52C8.28 68.72 8.08 68.32 7.92 67.92H6.84C6.68 67.6 6.52 67.32 6.36 67.08C6.28 66.76 6.16 66.44 6 66.12H7.44L6.72 64.32H7.08C7 64 6.92 63.72 6.84 63.48C6.76 63.16 6.68 62.84 6.6 62.52H7.92C7.84 62.36 7.8 62.16 7.8 61.92H6.6C6.6 61.76 6.56 61.64 6.48 61.56C6.48 61.48 6.48 61.4 6.48 61.32H6.24C6.16 60.92 6.08 60.52 6 60.12C5.92 59.72 5.84 59.32 5.76 58.92H6.36C6.28 58.52 6.2 58.12 6.12 57.72C6.12 57.32 6.12 56.92 6.12 56.52H5.4L5.28 55.32H6.12V54C6.12 53.84 6.08 53.68 6 53.52C6 53.28 6 53.08 6 52.92H4.44C4.36 52.52 4.32 52.12 4.32 51.72C4.32 51.32 4.32 50.92 4.32 50.52H5.16V49.92H4.8V48.12H7.2V46.92H3V46.32H5.28V45.72H5.16V43.92H4.56V41.52H5.28V39.12H4.44V37.32H1.2666e-07V34.92H5.16C5.24 34.76 5.28 34.56 5.28 34.32H7.2V33.72H5.76V32.52H5.88L6.12 30.12H5.88C5.88 29.8 5.88 29.52 5.88 29.28C5.96 28.96 6.04 28.64 6.12 28.32H5.76C5.76 28 5.76 27.72 5.76 27.48C5.84 27.16 5.92 26.84 6 26.52H5.76C5.84 26.2 5.92 25.92 6 25.68C6.08 25.36 6.16 25.04 6.24 24.72H2.88C2.88 24.56 2.88 24.44 2.88 24.36C2.96 24.28 3 24.2 3 24.12H6.6L6.96 22.92H6.72L6.96 22.32H8.76C8.84 22.16 8.92 21.96 9 21.72C9.08 21.48 9.16 21.28 9.24 21.12H8.04C8.28 20.4 8.6 19.6 9 18.72H8.64C8.88 18.32 9.08 17.92 9.24 17.52C9.48 17.04 9.72 16.64 9.96 16.32H10.32L10.68 15.72H8.76L9.12 15.12H11.04L11.4 14.52H11.16L12.6 12.72H11.76L13.32 10.92C13.72 10.52 14.12 10.12 14.52 9.72C15 9.24 15.48 8.84 15.96 8.52H14.76L15.48 7.92H14.16C14.32 7.76 14.44 7.64 14.52 7.56C14.68 7.48 14.84 7.4 15 7.32H18C18.32 7.16 18.64 6.96 18.96 6.72C19.28 6.48 19.6 6.28 19.92 6.12H20.28C21.08 5.72 21.88 5.32 22.68 4.92C23.48 4.44 24.28 4.04 25.08 3.72H25.44C27.04 3 28.8 2.4 30.72 1.92H31.32C33.64 1.28 36.08 0.800002 38.64 0.480001C41.2 0.16 43.84 0 46.56 0C52.24 0 57.28 0.640001 61.68 1.92H60.96C61.84 2.16 62.72 2.44 63.6 2.76C64.48 3 65.32 3.32 66.12 3.72H65.64C66.52 4.04 67.32 4.44 68.04 4.92C68.84 5.32 69.64 5.72 70.44 6.12H69.96L71.76 7.32H68.76C68.92 7.4 69.04 7.48 69.12 7.56C69.28 7.64 69.44 7.76 69.6 7.92H70.92C71.08 8 71.24 8.08 71.4 8.16C71.56 8.24 71.68 8.36 71.76 8.52H72.96C73.44 8.84 73.88 9.24 74.28 9.72C74.76 10.12 75.2 10.52 75.6 10.92H75.72C76.04 11.24 76.32 11.56 76.56 11.88C76.8 12.12 77.04 12.4 77.28 12.72H78.12L79.56 14.52H79.8C80.04 14.76 80.2 14.96 80.28 15.12H78.36L78.72 15.72H80.76L81.12 16.32H80.76C81 16.64 81.2 17.04 81.36 17.52C81.6 17.92 81.84 18.32 82.08 18.72H82.44L83.52 21.12H84.72L85.08 22.32H83.28L83.52 22.92H83.76L84.12 24.12H83.76C83.76 24.2 83.76 24.28 83.76 24.36C83.84 24.44 83.88 24.56 83.88 24.72H78.84C79 25.04 79.08 25.36 79.08 25.68C79.16 25.92 79.24 26.2 79.32 26.52H85.56C85.64 26.84 85.68 27.16 85.68 27.48C85.76 27.72 85.8 28 85.8 28.32H84.12C84.2 28.64 84.24 28.96 84.24 29.28C84.32 29.52 84.36 29.8 84.36 30.12H85.92L86.16 32.52H84.6V32.88C84.6 32.96 84.6 33.08 84.6 33.24C84.68 33.4 84.72 33.56 84.72 33.72H87.96V34.32H85.08C85.16 34.48 85.2 34.68 85.2 34.92H87.36C87.44 35.32 87.48 35.72 87.48 36.12C87.48 36.52 87.48 36.92 87.48 37.32H83.88V39.12ZM57.6 41.52H58.68V39.12H52.68V37.32H56.28C56.28 36.92 56.28 36.52 56.28 36.12C56.28 35.72 56.24 35.32 56.16 34.92H54C54 34.76 53.96 34.64 53.88 34.56C53.88 34.48 53.88 34.4 53.88 34.32H56.76V33.72H53.52C53.52 33.56 53.48 33.44 53.4 33.36C53.4 33.28 53.4 33.2 53.4 33.12V32.52H54.84C54.84 32.12 54.8 31.72 54.72 31.32C54.72 30.84 54.68 30.44 54.6 30.12H53.04C52.96 29.8 52.88 29.52 52.8 29.28C52.72 28.96 52.6 28.64 52.44 28.32H54.12C53.88 27.68 53.56 27.08 53.16 26.52H46.92C46.52 25.88 45.88 25.28 45 24.72H50.04C49.56 24.4 49.2 24.2 48.96 24.12H49.32C48.12 23.64 46.8 23.4 45.36 23.4C43.92 23.4 42.6 23.64 41.4 24.12H37.92C37.6 24.2 37.2 24.4 36.72 24.72H40.08C39.44 25.12 38.8 25.72 38.16 26.52H38.4C38 27.08 37.68 27.68 37.44 28.32H37.8C37.72 28.64 37.64 28.96 37.56 29.28C37.48 29.52 37.36 29.8 37.2 30.12H37.44C37.36 30.44 37.28 30.84 37.2 31.32C37.2 31.72 37.2 32.12 37.2 32.52H36.96V33.72H38.4V34.32H36.48V34.92H31.2V37.32H35.64V39.12H36.48V41.52H35.76V43.92H36.36V45.72H36.48C36.48 45.96 36.52 46.16 36.6 46.32H34.2V46.92H38.4V48.12H36V49.92H36.36V50.52H35.52C35.52 50.92 35.52 51.32 35.52 51.72C35.6 52.12 35.64 52.52 35.64 52.92H37.32V53.28C37.32 53.6 37.32 53.96 37.32 54.36C37.32 54.68 37.36 55 37.44 55.32H36.6C36.68 55.48 36.72 55.68 36.72 55.92C36.72 56.16 36.76 56.36 36.84 56.52H37.56C37.64 56.92 37.76 57.32 37.92 57.72C38.08 58.12 38.24 58.52 38.4 58.92H37.8C38.28 59.8 38.92 60.6 39.72 61.32H39.96C40.12 61.4 40.28 61.52 40.44 61.68C40.6 61.76 40.76 61.84 40.92 61.92H42C42.24 62 42.48 62.12 42.72 62.28C42.96 62.36 43.2 62.44 43.44 62.52H42C42.96 62.84 44.08 63 45.36 63C46.64 63 47.76 62.84 48.72 62.52H50.76C51 62.44 51.24 62.36 51.48 62.28C51.72 62.12 51.96 62 52.2 61.92H50.28C50.44 61.84 50.6 61.76 50.76 61.68C50.92 61.52 51.08 61.4 51.24 61.32H49.92C50.64 60.76 51.28 59.96 51.84 58.92H52.92C53.32 58.04 53.64 57.24 53.88 56.52H52.68C52.76 56.36 52.8 56.16 52.8 55.92C52.8 55.68 52.84 55.48 52.92 55.32H53.52C53.6 55 53.64 54.68 53.64 54.36C53.64 53.96 53.64 53.6 53.64 53.28V52.92H53.88C53.88 52.52 53.88 52.12 53.88 51.72C53.88 51.32 53.92 50.92 54 50.52H53.88V49.92H57.36V48.12H51.6V46.92H54.96V46.32H54V45.72H56.52V43.92H57.6V41.52ZM174.983 67.92H163.943V69.12H171.743V69.72H170.303V70.92H167.303V73.92H168.383V75.12H171.743V76.32H163.703V78.72H172.223V80.52H167.183V81.72H168.743V82.32H167.303C167.143 82.8 166.983 83.2 166.823 83.52C166.743 83.68 166.583 83.88 166.343 84.12H166.463C166.143 84.44 165.903 84.64 165.743 84.72H165.503C165.103 85.04 164.543 85.2 163.823 85.2H140.303C139.663 85.2 139.063 85.04 138.503 84.72H138.863C138.703 84.64 138.463 84.44 138.143 84.12H138.023C137.783 83.88 137.623 83.68 137.543 83.52H137.663C137.423 83.12 137.303 82.72 137.303 82.32H138.743V81.72H137.183V80.52H142.223V78.72H133.703V76.32H141.743V75.12H138.383V73.92H137.303V70.92H140.303V69.72H141.743V69.12H133.943V67.92H144.983V66.72H137.063V64.92H140.783V63.72H135.983V64.92H133.223V66.72H131.183V67.92H132.383V69.12H128.063V69.72H125.543V70.92H125.303V72.12H125.063V73.92H120.743V75.12H115.703V76.32H123.503V78.72H114.263V80.52H117.143V81.72H123.623V82.32H125.303L124.943 83.52H124.823C124.743 83.6 124.663 83.68 124.583 83.76C124.503 83.84 124.423 83.96 124.343 84.12H124.463C124.143 84.44 123.903 84.64 123.743 84.72H126.383C125.823 85.04 125.223 85.2 124.583 85.2H101.183C100.463 85.2 99.9025 85.04 99.5025 84.72H96.8625C96.7025 84.64 96.4625 84.44 96.1425 84.12C95.9025 83.88 95.7425 83.68 95.6625 83.52H95.7825C95.7025 83.36 95.6225 83.2 95.5425 83.04C95.4625 82.8 95.4225 82.56 95.4225 82.32H93.7425V81.72H87.2625V80.52H84.3825V78.72H93.6225V76.32H85.8225V75.12H90.8625V73.92H95.1825V72.12H95.4225V70.92H95.6625V69.72H98.1825V69.12H102.503V67.92H101.303V66.72H103.343V64.92H106.103V63.72H91.3425V63.12H93.0225V62.52H95.7825V61.92H93.3825V61.32H95.5425V59.52H95.4225V57.72H93.3825V57.12H95.0625V55.92H96.8625V55.32H93.8625V52.92H90.6225V51.72H93.3825V49.32H96.7425V48.72H94.8225V48.12H94.7025V47.52H95.1825V46.32H98.5425V45.72H93.8625V44.52H95.4225V42.72H97.9425V42.12H96.3825V40.32H95.3025V39.72H94.3425V37.92H96.6225V35.52H92.9025V33.12H96.6225V31.32H92.7825V28.92H95.3025V28.32H96.5025V26.52H95.1825V24.72H94.8225V22.32H95.7825V20.52H99.2625V18.72H94.8225V17.52H92.0625V15.12H85.1025V12.72H97.7025V10.32H96.6225V7.92H91.7025V6.72H99.8625V6.12H95.0625V3.72H93.8625V3.24C93.8625 2.84 93.9425 2.4 94.1025 1.92H95.5425C96.1025 0.640001 97.1025 0 98.5425 0H121.943C123.383 0 124.383 0.640001 124.943 1.92H123.503C123.663 2.4 123.743 2.84 123.743 3.24V3.72H124.943V6.12H129.743V6.72H121.582V7.92H126.503V10.32H127.583V12.72H114.983V15.12H121.943V17.52H124.703V18.72H129.143V20.52H125.663V22.32H124.703V24.72H125.063V26.52H126.383V28.32H129.263C129.663 28 130.023 27.72 130.343 27.48C130.663 27.16 131.023 26.84 131.423 26.52H127.943C128.423 26.2 128.863 25.88 129.263 25.56C129.743 25.24 130.263 24.96 130.823 24.72C132.823 23.6 134.943 22.8 137.183 22.32H139.943C142.023 21.84 144.143 21.6 146.303 21.6C148.383 21.6 150.383 21.84 152.303 22.32H149.543C151.623 22.8 153.623 23.6 155.543 24.72C155.943 24.96 156.383 25.24 156.863 25.56C157.343 25.8 157.783 26.12 158.183 26.52H161.543C161.943 26.84 162.263 27.16 162.503 27.48C162.823 27.72 163.143 28 163.463 28.32H160.343C160.423 28.4 160.503 28.48 160.583 28.56C160.663 28.64 160.743 28.76 160.823 28.92H158.063C158.463 29.24 158.783 29.64 159.023 30.12C159.343 30.52 159.663 30.92 159.983 31.32H163.943L165.023 33.12H161.303L162.383 35.52H166.223C166.383 35.84 166.543 36.24 166.703 36.72C166.863 37.12 166.983 37.52 167.063 37.92H164.783C164.943 38.24 165.023 38.56 165.023 38.88C165.103 39.12 165.183 39.4 165.263 39.72H166.223C166.303 39.88 166.343 40.08 166.343 40.32H167.543L167.903 42.12H169.343C169.423 42.28 169.463 42.48 169.463 42.72H167.063L167.183 43.92H165.983V44.52H167.903C167.983 44.68 168.023 44.88 168.023 45.12C168.023 45.36 168.023 45.56 168.023 45.72H171.383V46.32H167.423V47.52H167.303C167.383 47.68 167.423 47.88 167.423 48.12H167.303V48.72H166.943V49.32H167.183V51.72H162.503V52.92H167.543V55.32H167.063V55.92H168.143V57.12H165.863V57.72H167.783V59.52H169.583V61.32H167.303V61.92H168.503V62.52H169.343V63.12H164.303V63.72H170.783V64.92H167.063V66.72H174.983V67.92ZM126.023 28.32H125.183V28.92H125.423C125.583 28.76 125.703 28.64 125.783 28.56C125.863 28.48 125.943 28.4 126.023 28.32ZM134.303 63.12H139.343V62.52H138.503V61.92H137.303V61.32H139.583V59.52H137.783V57.72H135.863V57.12H138.143V55.92H137.063V55.32H137.543V52.92H132.503V51.72H137.183V49.32H136.943V48.72H137.303C137.303 48.56 137.263 48.44 137.183 48.36C137.183 48.28 137.183 48.2 137.183 48.12H137.303C137.223 47.96 137.183 47.76 137.183 47.52H137.303L136.943 46.32H140.903C140.743 46 140.663 45.8 140.663 45.72H137.303C137.223 45.48 137.063 45.28 136.823 45.12C136.663 44.88 136.503 44.68 136.343 44.52H134.423C134.103 44.2 133.823 44 133.583 43.92H134.903C134.023 43.36 132.863 43.08 131.423 43.08C129.983 43.08 128.863 43.36 128.063 43.92H127.943C127.783 44 127.543 44.2 127.223 44.52H125.663C125.503 44.68 125.343 44.88 125.183 45.12C125.023 45.28 124.863 45.48 124.703 45.72H129.263C129.103 46.04 129.023 46.24 129.023 46.32H125.663L125.303 47.52H124.703C124.703 47.76 124.663 47.96 124.583 48.12H124.823V48.72H126.623V49.32H123.263V51.72H120.503V52.92H123.743V55.32H126.743V55.92H124.943V57.12H123.263V57.72H125.303V59.52H125.423V61.32H123.263V61.92H125.663V62.52H122.903V63.12H121.223V63.72H134.303V63.12ZM223.051 46.92H219.811V49.32H222.811V51.12H224.371V51.72H215.491V54.12H223.051V56.52H225.091V57.12H222.451V57.72C222.451 58.36 222.251 58.96 221.851 59.52H215.851C215.691 59.84 215.531 60.04 215.371 60.12H221.371C221.211 60.2 221.051 60.32 220.891 60.48C220.731 60.56 220.571 60.64 220.411 60.72H227.731C227.251 60.88 226.851 60.96 226.531 60.96H187.531C187.211 60.96 186.811 60.88 186.331 60.72H178.891C178.571 60.56 178.251 60.36 177.931 60.12H172.051C171.811 59.96 171.611 59.76 171.451 59.52H177.451C177.371 59.28 177.251 59 177.091 58.68C177.011 58.36 176.971 58.04 176.971 57.72V57.12H179.611V56.52H177.571V54.12H170.011V51.72H178.891V51.12H177.331V49.32H174.331V46.92H177.571V45.72H183.571V45.12H174.811V43.92H183.451V41.52H171.211V40.32H172.651C172.811 39.2 173.331 38.4 174.211 37.92H178.291C178.691 37.6 179.251 37.44 179.971 37.44H218.971C219.691 37.44 220.251 37.6 220.651 37.92H216.571C217.451 38.4 217.971 39.2 218.131 40.32H216.691V41.52H228.931V43.92H220.291V45.12H229.051V45.72H223.051V46.92ZM345.295 56.52H319.015V57.72H340.255V60.12H330.895V60.72H321.535V62.52H315.415V64.32H312.775V66.12H300.175V68.52H319.015V70.92H309.415V72.12H317.815V73.32H322.855V75.12H324.655V76.92H326.335V78.12H326.455V80.52H328.975V81.12H327.655V81.72H324.655V82.32H317.695L317.335 83.52H313.615C313.295 84.08 312.935 84.48 312.535 84.72H316.975C316.575 85.04 316.015 85.2 315.295 85.2H293.575C292.855 85.2 292.295 85.04 291.895 84.72H287.335C286.935 84.48 286.575 84.08 286.255 83.52H289.855C289.615 83.12 289.495 82.72 289.495 82.32H296.455V81.72H299.455V81.12H300.775V80.52H298.255V78.12H298.135V76.92H296.455V75.12H294.655V73.32H289.615V72.12H281.215V70.92H290.815V68.52H248.335V70.92H265.495V72.12H262.975V75.12H263.455V76.92H261.175V78.12H260.335V80.52H260.695V81.12H269.575V81.72H262.135V82.32H266.455C266.455 82.72 266.335 83.12 266.095 83.52H259.495C259.255 84.08 258.855 84.48 258.295 84.72H257.575C257.175 85.04 256.575 85.2 255.775 85.2H234.055C233.335 85.2 232.775 85.04 232.375 84.72H233.215C232.975 84.56 232.735 84.4 232.495 84.24C232.335 84 232.175 83.76 232.015 83.52H238.735C238.495 83.12 238.375 82.72 238.375 82.32H233.935V81.72H241.375V81.12H232.495V80.52H232.135V78.12H232.975V76.92H235.255V75.12H234.775V72.12H237.295V70.92H220.135V68.52H246.055V66.12H222.415V64.32H221.815V62.52H231.655V60.72H235.135V60.12H227.455V57.72H244.255V56.52H256.015L255.655 55.92H234.295V55.32H238.255V54.72H235.255V52.32H235.375V51.12H238.135V49.32H237.535V46.92H234.295V46.32H223.495V45.12H232.855V44.52H232.495V43.32H237.775V42.12H240.655V40.32H221.695V37.92H236.815V36.72H223.375V34.92H237.295V33.72H235.615V32.52H231.055V31.92H233.335V30.12H247.135V28.32H245.095V27.12H233.695V26.52H233.095V24.72H238.735V22.32H226.255V21.12H230.575V20.52H231.775V19.32H229.015V17.52H239.815V15.72H234.295V13.32H243.415V12.72H240.535V10.32H251.215V8.52H226.135V6.72H252.775V4.92H241.015V3.72H232.015C232.095 3.32 232.215 3 232.375 2.76C232.615 2.44 232.855 2.16 233.095 1.92H233.695C234.175 1.44 234.855 1.2 235.735 1.2H254.695C255.815 1.2 256.735 1.44 257.455 1.92H256.855C257.335 2.16 257.735 2.44 258.055 2.76C258.375 3.08 258.615 3.4 258.775 3.72H267.895L268.375 4.44L268.615 4.92H280.495L281.575 6.72H254.935L256.015 8.52H280.975L282.055 10.32H271.495L272.935 12.72H275.815L276.175 13.32H267.055L268.495 15.72H273.895L274.975 17.52H264.295L265.375 19.32H268.135L268.855 20.52H267.655L268.015 21.12H263.695L264.415 22.32H276.895L278.335 24.72H272.695L273.775 26.52H274.375L274.735 27.12H283.615L283.975 26.52H280.735L281.815 24.72H285.775L287.215 22.32H285.055L285.775 21.12H276.055L276.415 20.52H288.535L289.255 19.32H288.295L289.375 17.52H296.575L297.655 15.72H298.015L299.455 13.32H293.935L294.295 12.72H306.895L308.335 10.32H307.615L308.695 8.52H290.215L291.295 6.72H309.055L310.135 4.92H297.055L297.295 4.44C297.455 4.12 297.615 3.88 297.775 3.72H298.015C298.255 3.4 298.535 3.08 298.855 2.76C299.175 2.44 299.535 2.16 299.935 1.92H299.695C300.415 1.44 301.335 1.2 302.455 1.2H321.415C322.215 1.2 322.895 1.44 323.455 1.92H323.815C324.055 2.16 324.255 2.44 324.415 2.76C324.655 3 324.815 3.32 324.895 3.72H324.655V4.92H337.855V6.72H320.095V8.52H338.575V10.32H339.295V12.72H326.695V13.32H332.215V15.72H331.855V17.52H324.655V19.32H325.615V20.52H313.495V21.12H323.215V22.32H325.375V24.72H321.535V26.52H324.655V27.12H330.295V28.32H317.935V30.12H326.815V31.92H324.655V32.52H325.135V33.72H326.815V34.92H312.895V36.72H326.335V37.92H311.215V40.32H330.175V42.12H327.295V43.32H322.015V44.52H322.375V45.12H313.015V46.32H323.815V46.92H327.055V49.32H324.295V51.12H322.255V52.32H324.655V54.72H325.735V55.32H330.895V55.92H345.295V56.52ZM289.135 27.12H286.135L286.855 28.32H288.415L289.135 27.12ZM274.975 31.92L275.335 32.52H280.015L280.375 33.24L280.855 32.52H280.375L280.735 31.92H282.775L283.855 30.12H276.295L277.375 31.92H274.975ZM292.735 51.12H296.095V49.32H293.815L292.735 51.12ZM263.455 54.72H266.455V55.32H262.495V55.92H270.655L270.295 55.32H268.375L267.895 54.72H266.815L265.375 52.32H265.615L264.895 51.12H263.575V52.32H263.455V54.72ZM317.095 56.52V55.92H302.695V55.32H297.535V54.72H296.455V52.32H294.535L292.975 54.72H294.175L293.815 55.32H295.735L295.375 55.92H285.535V56.52H272.455V57.72H255.655V60.12H263.335V60.72H259.855V62.52H250.015V64.32H250.615V66.12H284.575V64.32H287.215V62.52H277.135C276.895 62.84 276.655 63.16 276.415 63.48C276.175 63.8 275.855 64.08 275.455 64.32H275.095C274.375 64.8 273.575 65.04 272.695 65.04H264.295C263.335 65.04 262.495 64.8 261.775 64.32H262.135C261.815 64.08 261.495 63.8 261.175 63.48C260.935 63.16 260.695 62.84 260.455 62.52H272.815L272.455 62.04L271.615 60.72H267.295L266.935 60.12H275.335L273.775 57.72H287.815L287.095 56.52H317.095ZM312.055 60.12V57.72H296.335L294.895 60.12H286.615L286.255 60.72H290.575L289.735 62.04L289.375 62.52H293.335V60.72H302.695V60.12H312.055ZM409.429 27.72H399.709L399.469 28.32H409.549L408.469 30.72H403.789L402.829 33.12H405.349L404.389 35.52H400.429L399.949 36.72H402.949L402.469 37.92H401.749L401.509 38.52H401.389L400.549 40.32H401.749L401.029 42.12H392.509L391.909 43.32H398.509L398.269 43.92H387.469L386.989 45.12H386.029L384.949 47.52H400.789L400.549 48.12H397.789L397.189 49.32H398.029L397.789 49.92H397.069L395.989 52.32L395.269 54.12H393.829L392.989 55.92H393.949L393.109 57.72H393.469L393.229 58.32H393.109L392.629 59.52H393.229L392.749 60.72H392.149L391.669 61.92H391.549L390.829 63.72H391.549L391.309 64.32H390.589L389.749 66.12H385.309L384.229 68.52H387.109L386.629 69.72H390.109L389.149 72.12H385.189L384.709 73.32H386.629L385.669 75.72H385.069L383.989 78.12H384.829L384.349 79.32H384.109L383.509 80.52H383.269L382.429 82.32H382.789L381.949 84.12H380.989L380.149 85.92H378.469L377.869 87.12H386.629L385.669 89.52H376.789L375.709 91.92H380.629L379.549 94.32H384.469L383.389 96.72H383.629L382.669 99.12H367.549L366.949 100.32H370.429L369.949 101.52H375.229L374.629 102.72H362.629L362.029 103.92H368.269L367.789 105.12C367.389 106.16 366.709 106.96 365.749 107.52H360.709C360.069 107.84 359.389 108 358.669 108H338.989C338.269 108 337.749 107.84 337.429 107.52H342.349C341.629 106.96 341.269 106.28 341.269 105.48V105.12C341.269 104.8 341.309 104.52 341.389 104.28L341.509 103.92H335.269L335.869 102.72H347.869L348.349 101.52H343.069L343.549 100.32H340.189L340.669 99.12H355.789L356.869 96.72H356.629L357.589 94.32H352.669L353.629 91.92H348.829L349.789 89.52H358.669L359.629 87.12H350.869L351.349 85.92H353.149L353.869 84.12H354.949L355.669 82.32H355.429L355.909 81.24L355.549 80.52H355.789L355.309 79.32H355.669L355.069 78.12H354.229L353.269 75.72H353.869L352.789 73.32H350.869L350.269 72.12H354.229L353.269 69.72H349.669L349.189 68.52H346.309L345.349 66.12H349.789L349.069 64.32H349.789L349.549 63.72H348.709L347.989 61.92H348.109L347.629 60.72H348.109L347.629 59.52H346.909L346.429 58.32H346.549L346.309 57.72H345.949L345.229 55.92H344.389L343.549 54.12H344.989L344.269 52.32H342.589L341.629 49.92H342.949L342.589 49.32H344.509L343.909 48.12H340.909L340.549 47.52H340.429L339.349 45.12H324.349L323.749 43.92H332.749L332.509 43.32H332.989L332.389 42.12H338.389L337.549 40.32H338.629L337.909 38.52H338.149L337.909 37.92H337.789L337.309 36.72H336.949L336.349 35.52H337.549L336.589 33.12H333.349L332.269 30.72H334.789L333.829 28.32H327.349L327.109 27.72H336.589L336.109 26.52C336.029 26.28 335.989 26 335.989 25.68C335.989 25.52 336.029 25.4 336.109 25.32H337.789C338.189 23.64 339.149 22.8 340.669 22.8H360.949C362.069 22.8 362.909 23.08 363.469 23.64C364.029 24.12 364.429 24.68 364.669 25.32H362.989C362.989 25.4 362.989 25.48 362.989 25.56C363.069 25.56 363.109 25.6 363.109 25.68L363.469 26.52L363.829 27.72H354.229L354.469 28.32H360.949L361.909 30.72H359.389L360.229 33.12H363.469L364.309 35.52H363.109L363.589 36.72H363.949L364.669 38.52H364.429L365.029 40.32H364.069L364.669 42.12H358.789L359.149 43.32H358.669L358.909 43.92H350.029L350.389 45.12H360.949L361.429 43.92H372.229L372.469 43.32H365.869L366.349 42.12H374.749L375.469 40.32H374.269L374.989 38.52H375.109L375.349 37.92H376.069L376.429 36.72H373.429L373.909 35.52H377.749L378.709 33.12H376.069L377.029 30.72H381.709L382.549 28.32H372.469L372.709 27.72H382.429L382.909 26.52L383.149 25.68C383.229 25.6 383.269 25.48 383.269 25.32H379.309C379.709 24.68 380.189 24.12 380.749 23.64C381.389 23.08 382.229 22.8 383.269 22.8H403.309C404.029 22.8 404.669 23.08 405.229 23.64C405.789 24.12 406.069 24.68 406.069 25.32H410.029C410.029 25.8 409.989 26.2 409.909 26.52L409.429 27.72ZM374.749 48.12L374.869 47.52H366.589L366.829 48.12H369.829L370.309 49.32H368.509L368.749 49.92H367.429L368.269 52.32H369.949L370.189 53.04L370.429 52.32L371.269 49.92H372.109L372.349 49.32H371.509L371.869 48.12H374.749ZM456.723 46.92H453.483V49.32H456.483V51.12H458.043V51.72H449.163V54.12H456.723V56.52H458.763V57.12H456.123V57.72C456.123 58.36 455.923 58.96 455.523 59.52H449.523C449.363 59.84 449.203 60.04 449.043 60.12H455.043C454.883 60.2 454.723 60.32 454.563 60.48C454.403 60.56 454.243 60.64 454.083 60.72H461.403C460.923 60.88 460.523 60.96 460.203 60.96H421.203C420.883 60.96 420.483 60.88 420.003 60.72H412.563C412.243 60.56 411.923 60.36 411.603 60.12H405.723C405.483 59.96 405.283 59.76 405.123 59.52H411.123C411.043 59.28 410.923 59 410.763 58.68C410.683 58.36 410.643 58.04 410.643 57.72V57.12H413.283V56.52H411.243V54.12H403.683V51.72H412.563V51.12H411.003V49.32H408.003V46.92H411.243V45.72H417.243V45.12H408.483V43.92H417.123V41.52H404.883V40.32H406.323C406.483 39.2 407.003 38.4 407.883 37.92H411.963C412.363 37.6 412.923 37.44 413.643 37.44H452.643C453.363 37.44 453.923 37.6 454.323 37.92H450.243C451.123 38.4 451.643 39.2 451.803 40.32H450.363V41.52H462.603V43.92H453.963V45.12H462.723V45.72H456.723V46.92ZM539.703 12.12H551.343L550.623 13.32H548.223L547.143 15.12H535.023L534.303 16.32H535.983L534.783 18.12H536.343L534.783 20.52H532.983L531.903 22.32H536.223L535.503 23.52H533.463L532.623 24.72H531.783L531.423 25.32H529.863L528.423 27.72H527.343L526.143 29.52H527.583L526.863 30.72H527.583L526.143 33.12H516.303L515.103 34.92H515.343L513.783 37.32H524.463L523.743 38.52H526.623L526.263 39.12H525.903L525.063 40.32H526.743L526.023 41.52H516.303L516.063 41.88L516.543 42.72H524.703L526.263 45.12H523.983L524.703 46.32H524.103L524.463 46.92H523.623L524.823 48.72H527.223L527.583 49.32H531.663L532.023 49.92H526.143L526.983 51.12H527.823L529.383 53.52H528.543L530.103 55.92H528.063L528.543 56.52L529.743 58.32H527.343L527.823 58.92H528.303L529.503 60.72H532.743L533.103 61.32H534.303L534.663 61.92H537.423L538.983 64.32H538.623L539.823 66.12H535.263L535.623 66.72H537.063L538.263 68.52H534.663L535.383 69.72H532.143L533.223 71.52H542.703L543.903 73.32H542.823L543.663 74.52H542.223L543.783 76.92H544.383L545.223 78.12H546.063L546.423 78.72H544.983L546.543 81.12H547.383L547.503 81.24C547.663 81.56 547.743 81.84 547.743 82.08C547.823 82.24 547.863 82.4 547.863 82.56V82.92H546.903C546.743 83.64 546.383 84.24 545.823 84.72H545.583C545.183 85.04 544.663 85.2 544.023 85.2H517.023C516.543 85.2 516.103 85.16 515.703 85.08C515.383 84.92 515.023 84.8 514.623 84.72H514.863C513.903 84.32 513.183 83.72 512.703 82.92H513.663C513.583 82.76 513.463 82.6 513.303 82.44L512.463 81.12H511.503L509.943 78.72H511.503L511.143 78.12H510.183L509.463 76.92H508.743L507.183 74.52H508.623L507.903 73.32H508.983L507.783 71.52H498.303L497.103 69.72H500.463L499.623 68.52H503.343L502.143 66.72H500.703L500.463 66.36L500.223 66.72H499.383L498.303 68.52H494.823L494.103 69.72H496.503L495.303 71.52H493.863L492.783 73.32H496.983L496.263 74.52H496.863L495.423 76.92H497.103L496.263 78.12H493.983L493.623 78.72H494.103L492.543 81.12H492.783L491.943 82.44C491.783 82.6 491.663 82.76 491.583 82.92H490.743C490.263 83.72 489.543 84.32 488.583 84.72H488.103C487.783 84.8 487.423 84.92 487.023 85.08C486.623 85.16 486.183 85.2 485.703 85.2H459.543C458.903 85.2 458.423 85.04 458.103 84.72H458.463C457.903 84.24 457.543 83.64 457.383 82.92H458.223V82.56C458.223 82.4 458.223 82.24 458.223 82.08C458.303 81.84 458.423 81.56 458.583 81.24L458.703 81.12H458.463L460.023 78.72H459.663L460.023 78.12H462.303L463.023 76.92H461.343L462.903 74.52H462.303L463.143 73.32H458.823L460.023 71.52H461.463L462.663 69.72H460.263L460.983 68.52H464.583L465.663 66.72H466.503L466.863 66.12H471.423L472.623 64.32H472.863L474.423 61.92H471.783L472.143 61.32H470.943L471.303 60.72H468.063L469.263 58.92H468.783L469.143 58.32H471.423L472.623 56.52H472.503L472.983 55.92H474.903L476.463 53.52H477.303L478.863 51.12H478.023L478.743 49.92H484.623L485.103 49.32H481.023L481.383 48.72H478.983L480.183 46.92H480.903L481.383 46.32H481.983L482.823 45.12H485.103L486.663 42.72H478.503L478.863 42.24L478.383 41.52H488.223L487.383 40.32H485.823L484.983 39.12H485.463L485.103 38.52H482.103L481.383 37.32H470.703L469.263 34.92H469.023L467.943 33.12H477.783L476.343 30.72H475.503L474.783 29.52H473.343L472.263 27.72H473.343L471.903 25.32H473.463L473.103 24.72H473.943L473.223 23.52H475.263L474.543 22.32H470.103L469.023 20.52H470.823L469.383 18.12H468.303L467.103 16.32H472.503L471.783 15.12H465.783L464.703 13.32H463.503L462.783 12.12H469.623L468.903 10.92H467.223L466.503 9.72H463.623L462.903 8.52H463.023L462.663 7.92H463.503L462.063 5.52H457.623L457.383 5.16C457.383 5.08 457.383 5.04 457.383 5.04C457.303 5.04 457.263 5 457.263 4.92H460.503C460.423 4.76 460.343 4.6 460.263 4.44C460.263 4.28 460.263 4.08 460.263 3.84V3.72H460.383C460.543 2.92 460.823 2.32 461.223 1.92H460.263C460.743 1.44 461.343 1.2 462.063 1.2H488.103C488.663 1.2 489.183 1.28 489.663 1.44C490.143 1.6 490.543 1.76 490.863 1.92H491.943C492.423 2.16 492.823 2.44 493.143 2.76C493.463 3.08 493.703 3.4 493.863 3.72H493.743C493.903 4.04 493.983 4.2 493.983 4.2L494.463 4.92H491.223L491.463 5.52H495.903L497.343 7.92H496.503L496.863 8.52H496.743L497.463 9.72H500.223L500.943 10.92H502.623L503.223 12.12H496.383L497.103 13.32H498.303L499.383 15.12H514.503L515.583 13.32H517.983L518.703 12.12H507.063L507.783 10.92H509.943L510.783 9.72H505.863L506.703 8.52H509.343L509.703 7.92H508.863L510.423 5.52H512.343L512.703 4.92H511.623L512.103 4.2C512.103 4.2 512.183 4.04 512.343 3.72H512.703C512.863 3.4 513.103 3.08 513.423 2.76C513.743 2.44 514.143 2.16 514.623 1.92H511.863C512.263 1.76 512.703 1.6 513.183 1.44C513.663 1.28 514.183 1.2 514.743 1.2H539.583C540.383 1.2 540.943 1.44 541.263 1.92H544.023C544.583 2.48 544.863 3.08 544.863 3.72H544.623V3.84C544.623 4.32 544.543 4.68 544.383 4.92H545.463C545.463 5 545.423 5.04 545.343 5.04C545.343 5.04 545.343 5.08 545.343 5.16L545.103 5.52H543.183L541.623 7.92H542.343L541.983 8.52H539.343L538.623 9.72H543.423L542.703 10.92H540.543L539.703 12.12ZM500.583 16.32L501.663 18.12H502.143L503.223 16.32H500.583ZM503.223 18.84L503.583 18.12H502.743L503.223 18.84ZM630.214 24.72H626.254L626.134 25.32H637.534L636.814 27.72H627.214L626.614 30.12H626.134L625.774 31.32H616.654L615.934 33.72H610.414L610.054 34.92H623.974L623.854 35.52H624.574L623.854 37.92H622.174L621.694 39.72H623.854L623.494 40.92H623.974L623.614 42.12H620.374L619.894 43.92H622.174L621.814 45.12H618.574L618.334 46.32H615.694L615.214 48.12H614.014L613.654 49.32H619.294L618.934 50.52H622.894L622.654 51.12H611.014L610.294 53.52H615.094L614.614 55.32H609.574L608.854 57.72H615.334L614.734 59.52H615.814L615.694 60.12H616.414L616.174 60.72H616.654L616.534 61.32H615.694L615.334 62.52H614.134L613.654 64.32H614.254L613.894 65.52H614.134L613.534 67.32H613.654L613.174 69.12H613.054L612.454 70.92H610.894L610.534 72.12H611.014L610.894 72.72H611.854L611.134 75.12H612.094L611.734 76.32H611.134L610.654 78.12H611.614L611.254 79.32H610.054L609.814 80.52H607.174L606.934 81.24L606.814 81.72H613.174C612.774 82.6 612.174 83.4 611.374 84.12H596.014C595.774 84.36 595.454 84.56 595.054 84.72H608.254C607.934 84.8 607.574 84.92 607.174 85.08C606.774 85.16 606.334 85.2 605.854 85.2H578.494C578.014 85.2 577.574 85.16 577.174 85.08C576.854 84.92 576.494 84.8 576.094 84.72H562.774C562.454 84.56 562.134 84.36 561.814 84.12H577.054C576.254 83.4 575.654 82.6 575.254 81.72H569.014C568.934 81.64 568.894 81.56 568.894 81.48C568.894 81.4 568.854 81.32 568.774 81.24L568.534 80.52H571.174L570.814 79.32H572.014L571.654 78.12H570.574L570.094 76.32H570.574L570.214 75.12H569.374L568.654 72.72H567.694L567.574 72.12H567.094L566.734 70.92H568.294L567.694 69.12H567.814L567.334 67.32H567.214L566.734 65.52H566.494L566.134 64.32H565.534L565.054 62.52H566.134L565.774 61.32H566.614L566.494 60.72H566.014L565.774 60.12H565.054L564.934 59.52H563.854L563.254 57.72H556.774L556.054 55.32H561.094L560.614 53.52H555.814L555.094 51.12H566.734L566.614 50.52H562.774L562.414 49.32H566.134L565.774 48.12H560.614L560.134 46.32H561.814L561.454 45.12H560.734L560.374 43.92H562.294L561.814 42.12H559.294L558.934 40.92H563.494L563.134 39.72H558.574L558.094 37.92H559.414L558.694 35.52H554.494L554.254 34.92H554.854L554.494 33.72H559.654L558.934 31.32H555.694L555.334 30.12H556.294L555.694 27.72H562.894L562.174 25.32H551.014L550.774 24.72H575.734L575.374 23.52H561.934L561.334 21.72H569.854L569.134 19.32H568.174L567.454 16.92H563.254L562.894 15.72H551.254L550.534 13.32H551.374L551.014 12.12L550.894 11.52H550.294L550.054 10.92L549.334 8.52H548.734L548.494 7.92H547.534L547.054 6.12H538.294L538.054 5.52H544.894L544.654 4.68C544.654 4.6 544.654 4.56 544.654 4.56C544.574 4.48 544.534 4.4 544.534 4.32H545.974V3.84C545.974 3.12 546.254 2.48 546.814 1.92H541.534C542.014 1.44 542.614 1.2 543.334 1.2H565.654C566.854 1.2 567.814 1.44 568.534 1.92H573.814C574.774 2.48 575.534 3.28 576.094 4.32H574.534L574.894 5.16L575.014 5.52H568.174L568.294 6.12H577.054L577.534 7.92H578.494L578.614 8.52H579.334L579.934 10.92L580.054 11.52H580.774L580.894 12.12H580.774L581.134 13.32H580.414L581.014 15.72H592.654L592.894 16.92H597.694L598.054 15.72H598.654L599.254 13.32H599.614L599.854 12.12H600.214L600.334 11.52H597.214L597.334 10.92H600.334L600.934 8.52H598.654L598.774 7.92H589.534L590.014 6.12H594.214L594.334 5.52H586.414L586.534 5.16C586.614 5 586.654 4.84 586.654 4.68C586.654 4.52 586.694 4.4 586.774 4.32H601.174C601.574 3.28 602.294 2.48 603.334 1.92H607.774C608.654 1.44 609.654 1.2 610.774 1.2H633.094C633.814 1.2 634.414 1.44 634.894 1.92H630.334C630.894 2.48 631.174 3.12 631.174 3.84V4.32H616.894C616.814 4.4 616.774 4.52 616.774 4.68L616.534 5.52H624.454L624.334 6.12H620.014L619.534 7.92H628.774L628.654 8.52H630.814L630.094 10.92H627.214L627.094 11.52H630.214L630.094 12.12H629.734L629.374 13.32H629.014L628.294 15.72H627.694L627.334 16.92H626.494L625.894 19.32H640.774L640.054 21.72H631.774L631.174 23.52H630.454L630.214 24.72ZM590.854 21.72L591.214 23.52H601.774L602.254 21.72H610.654L611.254 19.32H598.654L599.254 21.72H590.854ZM607.534 27.72L608.134 25.32H596.854L596.974 24.72H580.174L580.294 25.32H591.454L592.174 27.72H584.854L585.454 30.12H584.494L584.854 31.32H596.734L596.974 30.12H597.454L598.054 27.72H607.534ZM595.654 35.52H594.934L595.054 34.92H583.294L583.414 35.52H587.614L588.214 37.92H586.894L587.374 39.72H591.814L592.174 40.92H587.614L587.974 42.12H590.494L590.854 43.92H588.934L589.294 45.12H589.894L590.014 45.48L590.134 45.12H593.254L593.614 43.92H591.334L591.694 42.12H595.054L595.294 40.92H594.814L595.054 39.72H593.014L593.374 37.92H595.054L595.654 35.52ZM715.703 58.32H697.583C697.503 58.48 697.463 58.68 697.463 58.92C697.463 59.16 697.423 59.36 697.343 59.52H706.703C706.623 59.92 706.543 60.32 706.463 60.72C706.463 61.12 706.383 61.52 706.223 61.92H709.583L709.223 63.12H709.583C709.583 63.2 709.543 63.28 709.463 63.36C709.463 63.44 709.463 63.56 709.463 63.72H708.503C708.263 64.6 707.983 65.4 707.663 66.12H706.343L705.863 67.32H710.303C709.983 68.12 709.543 68.92 708.983 69.72H710.903L710.543 70.32H706.223L705.383 71.52H703.943L702.503 73.32H703.703C703.463 73.56 703.303 73.76 703.223 73.92H701.543L699.743 75.72H702.503C702.183 76.04 701.863 76.36 701.543 76.68C701.223 76.92 700.863 77.2 700.463 77.52H693.983L691.582 79.32H690.863C689.663 80.12 688.303 80.92 686.783 81.72H691.463C690.743 82.12 689.863 82.52 688.823 82.92C688.583 83 688.303 83.08 687.983 83.16C687.743 83.24 687.503 83.36 687.263 83.52H687.743C686.223 84.08 684.663 84.56 683.063 84.96C681.463 85.36 679.783 85.68 678.023 85.92H679.223C678.103 86.08 676.943 86.2 675.743 86.28C674.543 86.36 673.303 86.4 672.023 86.4C670.663 86.4 669.343 86.36 668.063 86.28C666.783 86.2 665.503 86.08 664.223 85.92H663.023C661.183 85.68 659.383 85.36 657.623 84.96C655.863 84.56 654.183 84.08 652.583 83.52H652.103C651.863 83.36 651.583 83.24 651.263 83.16C651.023 83.08 650.783 83 650.543 82.92C649.503 82.52 648.623 82.12 647.903 81.72H643.223C641.863 81.08 640.463 80.28 639.023 79.32H639.623C639.223 79 638.823 78.72 638.423 78.48C638.023 78.16 637.623 77.84 637.223 77.52H643.703L641.663 75.72H639.023L637.223 73.92H638.903C638.823 73.76 638.743 73.64 638.663 73.56C638.583 73.48 638.503 73.4 638.423 73.32H637.343L635.903 71.52H637.463C637.303 71.36 637.143 71.16 636.983 70.92C636.903 70.68 636.783 70.48 636.623 70.32H640.943L640.583 69.72H638.663C638.423 69.32 638.183 68.92 637.943 68.52C637.783 68.12 637.623 67.72 637.463 67.32H633.023C632.943 67.16 632.863 66.96 632.783 66.72C632.703 66.48 632.623 66.28 632.543 66.12H633.743C633.663 65.72 633.543 65.32 633.383 64.92C633.223 64.52 633.063 64.12 632.903 63.72H633.863L633.623 63.12H633.263C633.183 62.96 633.143 62.76 633.143 62.52C633.143 62.28 633.103 62.08 633.023 61.92H626.663C626.583 61.52 626.503 61.12 626.423 60.72C626.343 60.32 626.263 59.92 626.182 59.52H628.463C628.383 59.36 628.343 59.16 628.343 58.92C628.343 58.68 628.343 58.48 628.343 58.32H634.343V57.72H632.783V55.92H624.742V54.12H629.663C629.743 53.96 629.783 53.76 629.783 53.52H632.423V52.92H632.543C632.543 52.6 632.543 52.32 632.543 52.08C632.623 51.76 632.703 51.44 632.783 51.12H633.623C633.623 50.88 633.663 50.68 633.743 50.52H634.463C634.543 50.2 634.623 49.92 634.703 49.68C634.783 49.36 634.863 49.04 634.943 48.72H632.783L633.143 47.52H636.263C636.423 47.2 636.503 47 636.503 46.92H634.103C634.183 46.76 634.263 46.56 634.343 46.32C634.423 46.08 634.503 45.88 634.583 45.72H633.383C633.543 45.32 633.703 44.92 633.863 44.52C634.023 44.12 634.183 43.72 634.343 43.32H627.502C627.663 43 627.823 42.72 627.983 42.48C628.063 42.16 628.183 41.84 628.343 41.52H629.903C630.063 41.12 630.263 40.72 630.503 40.32H637.583L637.943 39.72H637.463L638.543 37.92H640.343L641.423 36.12H639.983C640.303 35.72 640.583 35.32 640.823 34.92C641.063 34.44 641.303 34.04 641.543 33.72H640.943C641.023 33.56 641.183 33.36 641.423 33.12H641.063L641.903 31.92H641.543C641.783 31.52 642.023 31.2 642.263 30.96C642.503 30.64 642.703 30.36 642.863 30.12H643.103C643.423 29.64 643.663 29.32 643.823 29.16L644.423 28.32H642.023L642.983 27.12H647.903L648.743 25.92H649.583L651.023 24.12H648.263L650.063 21.72H650.303L650.663 21.12H650.303L650.663 20.52H650.903L651.743 19.32H650.303L651.743 17.52H650.183L650.663 16.92H652.823L654.623 14.52H665.063L666.023 13.32H663.503L664.463 12.12H663.623L664.583 10.92H661.703L663.623 8.52H662.543L664.343 6.12H661.463L662.423 4.92H662.543L663.503 3.72H663.383L663.503 3.6C663.663 3.36 663.903 3.08 664.223 2.76C664.543 2.44 664.903 2.16 665.303 1.92H665.183C665.583 1.76 666.023 1.6 666.503 1.44C666.983 1.28 667.503 1.2 668.063 1.2H692.183C692.903 1.2 693.503 1.44 693.983 1.92H694.103C694.663 2.48 694.943 3.08 694.943 3.72V3.84C694.943 4.4 694.903 4.76 694.823 4.92H694.583C694.583 5.08 694.503 5.24 694.343 5.4L693.863 6.12H696.623L694.823 8.52H696.023L694.103 10.92H696.983L696.023 12.12H696.863L696.023 13.32H698.423L697.463 14.52H687.143L685.223 16.92H683.063L682.703 17.52H684.143L682.823 19.32H684.263L683.423 20.52H683.183L682.823 21.12H683.183L682.823 21.72H682.583L680.783 24.12H683.543L682.583 25.44H683.423C683.903 25.52 684.423 25.6 684.983 25.68C685.543 25.68 686.103 25.76 686.663 25.92H685.703C686.423 26 687.143 26.16 687.863 26.4C688.663 26.64 689.463 26.88 690.263 27.12H685.343C685.823 27.28 686.303 27.48 686.783 27.72C687.343 27.88 687.903 28.08 688.463 28.32H690.863C692.063 28.8 693.263 29.4 694.463 30.12H694.343L697.223 31.92H697.583C697.903 32.08 698.183 32.28 698.423 32.52C698.663 32.76 698.943 32.96 699.263 33.12H699.503C699.663 33.2 699.783 33.28 699.863 33.36C700.023 33.44 700.183 33.56 700.343 33.72H700.943C701.343 34.04 701.783 34.44 702.263 34.92C702.743 35.32 703.183 35.72 703.583 36.12H705.023L706.583 37.92H704.783C705.023 38.24 705.263 38.56 705.503 38.88C705.743 39.12 705.943 39.4 706.103 39.72H706.583L706.943 40.32H699.863L700.583 41.52H699.023C699.183 41.84 699.343 42.16 699.503 42.48C699.743 42.72 699.903 43 699.983 43.32H706.823L707.903 45.72H709.103L709.463 46.92H711.863C712.023 47.24 712.103 47.44 712.103 47.52H711.863L712.223 48.72H712.343C712.583 49.28 712.703 49.88 712.703 50.52H707.183V51.12H710.183C710.263 51.44 710.303 51.76 710.303 52.08C710.303 52.32 710.343 52.6 710.423 52.92H710.303V53.52H709.943V54.12H711.263V55.92H713.663C713.663 56.24 713.623 56.56 713.543 56.88C713.543 57.12 713.543 57.4 713.543 57.72H715.703V58.32ZM675.383 59.52H666.023C666.183 59.36 666.303 59.2 666.383 59.04C666.463 58.8 666.543 58.56 666.623 58.32H684.743C684.743 58.16 684.743 58.04 684.743 57.96C684.823 57.88 684.863 57.8 684.863 57.72H682.703C682.943 57.08 683.063 56.48 683.063 55.92H680.663V54.12H679.223V53.52H679.583C679.583 53.28 679.543 53.08 679.463 52.92H679.583C679.503 52.6 679.383 52.32 679.223 52.08C679.143 51.76 679.023 51.44 678.863 51.12H675.863L675.503 50.52H681.023C680.543 49.8 679.943 49.2 679.223 48.72H678.983C678.503 48.4 677.983 48.16 677.423 48C676.863 47.76 676.263 47.6 675.623 47.52H675.863C675.623 47.44 675.343 47.4 675.023 47.4C674.783 47.4 674.503 47.4 674.183 47.4C673.943 47.4 673.663 47.4 673.343 47.4C673.103 47.4 672.863 47.44 672.623 47.52H669.383C668.823 47.6 668.223 47.76 667.583 48C667.023 48.16 666.503 48.4 666.023 48.72H668.183C667.543 49.12 666.903 49.72 666.263 50.52H665.543L665.183 51.12H664.343C664.023 51.68 663.783 52.28 663.623 52.92H663.503C663.503 53.16 663.463 53.36 663.383 53.52H660.743V54.12H655.703V55.92H663.743C663.743 56.24 663.743 56.56 663.743 56.88C663.823 57.12 663.903 57.4 663.983 57.72H665.543C665.543 57.8 665.623 58 665.783 58.32H659.663C659.823 58.56 659.943 58.8 660.023 59.04C660.103 59.2 660.183 59.36 660.263 59.52H658.103C658.743 60.56 659.583 61.36 660.623 61.92H667.103C668.303 62.64 669.783 63 671.543 63C673.303 63 674.823 62.64 676.103 61.92H672.743C673.703 61.36 674.583 60.56 675.383 59.52Z" fill="#A65353"/>
</svg>
